<?xml version="1.0" encoding="utf-8"?>
<!-- Generator: Adobe Illustrator 25.1.0, SVG Export Plug-In . SVG Version: 6.00 Build 0)  -->
<svg version="1.1" xmlns="http://www.w3.org/2000/svg" xmlns:xlink="http://www.w3.org/1999/xlink" x="0px" y="0px"
	 viewBox="0 0 172 172" style="enable-background:new 0 0 172 172;" xml:space="preserve">
<style type="text/css">
	.st0{fill:#2B2D42;}
	.st1{fill:#02A9FF;}
	.st2{fill-rule:evenodd;clip-rule:evenodd;fill:#FEFEFE;}
	.st3{display:none;}
	.st4{display:inline;}
</style>
<g id="Слой_4">
	<path class="st0" d="M157,172H15c-8.3,0-15-6.7-15-15V15C0,6.7,6.7,0,15,0h142c8.3,0,15,6.7,15,15v142C172,165.3,165.3,172,157,172
		z"/>
	<g>
		<path class="st1" d="M148.2,89.1c-4.6-4.3-15.8-9.9-33.5-16.6c-6.2-2.3-9.9-4.4-11.3-6c-1.4-1.7-2.1-4.1-2.1-7.4
			c0-2.6,0.6-4.5,1.8-5.7c1.2-1.3,3-1.9,5.4-1.9c2.2,0,3.8,0.5,4.7,1.4c0.9,0.9,1.4,3.1,1.4,6.5v7.3h37v-3.9
			c0-7.8-1.2-13.4-3.5-16.6c-2.4-3.3-7.2-6-14.5-8.1c-7.3-2.1-16.1-3.2-26.4-3.2c-9.5,0-17.5,1-24.2,2.9c-6.7,2-11.5,4.7-14.5,8.2
			c-2.5,3-4,7.4-4.4,13.3c0.9,0.7,1.7,1.6,2.1,2.8c0,0,0,0.1,0,0.1c0.5,0.6,1,1.3,1.3,2c1.1,2.6,2.5,5.1,3.8,7.6
			c0.9,1.5,1.9,3,2.9,4.5c1.2,1.9,0.9,3.7-0.1,5.1c-0.1,0.3-0.3,0.7-0.6,1c0.5,0.3,1,0.7,1.5,1c3.2,1.9,9.8,5,19.7,9.2
			c9.9,4.2,16.1,7.2,18.6,8.9c2.5,1.8,3.7,5.6,3.7,11.4c0,2.6-0.6,4.6-1.9,6c-1.3,1.3-3.3,2-5.9,2c-2.6,0-4.5-0.5-5.5-1.6
			c-1-1.1-1.6-3.4-1.6-7.1v-12h-37v6.4c0,1.4,0.1,2.7,0.1,4c0.3,0,0.6,0,0.9,0.1c6.5,1.2,12.9,4.5,19.2,6.6c1.7,0.6,2.8,1.7,3.2,3.1
			c2.8,1,5.2,2.7,7.5,4.7c0.1,0.1,0.1,0.1,0.2,0.2c2.2,0.2,4.4,0.3,6.5,1.4c1.9,1,3,2.3,3.7,4c0.9,0.6,1.7,1.3,2.4,2.1
			c1.2,1.5,1.7,3.2,1.4,4.7c0.1,0,0.2,0,0.4,0c9.7,0,18.2-1.1,25.5-3.4c7.3-2.2,12.2-5,14.8-8.4c2.6-3.3,3.8-8.5,3.8-15.5
			C155.1,100.4,152.8,93.4,148.2,89.1z"/>
	</g>
	<g>
		<path class="st2" d="M52.9,34.7l-36,102.6h28l6.1-17.7h30.5l6,17.7h27.9L79.4,34.7H52.9z M57.3,96.8l8.7-28.4l9.6,28.4H57.3z"/>
	</g>
</g>
<g id="Слой_1" class="st3">
	<g class="st4">
		<path class="st1" d="M140,91.6c-2.7-4.2-6.6-7.6-11.8-10.2s-13.5-5.2-25-7.5c-10.9-2.2-17.9-4.2-20.9-6.1c-3-1.8-4.5-4.1-4.5-6.8
			c0-2.7,1.7-5,5-6.9c3.3-1.8,8.1-2.8,14.3-2.8c6.2,0,10.9,1.1,14.3,3.2c3.3,2.1,5.5,5.8,6.5,11.2l23-0.9
			c-0.4-9.7-4.4-17.1-11.9-22.3c-7.5-5.2-17.9-7.8-31.3-7.8c-8.9,0-16.4,1.1-22.4,3.3c-6.1,2.2-10.8,5.5-14.2,9.8
			c-3.4,4.3-5.2,9.2-5.2,14.6c0,4.6,1.3,9,4,13c2.5,3.7,5.7,6.7,9.7,9.1c0,0,0,0,0,0c0.1-0.4,0.3-0.8,0.5-1.2c0,0,0,0,0,0
			c-1.3-2.2-0.3-5.6,2.2-7.1c0.2-1.1,0.4-2.3,0.6-3.4c0-0.2,0.1-0.4,0.2-0.6c0-2.5,1.6-5,4.8-5c3.7,0,5.3,3.4,4.7,6.2
			c0.1,0.7,0,1.4-0.1,2.1c-0.2,1.1-0.3,2.3-0.6,3.4c1.5,1.7,2.5,3.9,3.2,6.2c0.6,2,1.4,3.9,2.1,5.9c1.5,0.4,3.2,0.8,4.9,1.1
			c10.9,2.4,17.8,4.1,20.6,5.1c2.8,1,4.9,2.3,6.3,3.9c1.4,1.6,2.1,3.5,2.1,5.7c0,3.8-2,7-6,9.6c-3.9,2.5-9.1,3.8-15.8,3.9
			c0,0,0,0,0,0c-2.4,2.4-2.2,6.3-2.2,9.6c0,2.7,0.7,5,1.6,7.3c15.5-0.1,26.8-3,34.2-8.8c7.4-5.9,11.1-13.1,11.1-21.7
			C144,100.8,142.7,95.8,140,91.6z"/>
	</g>
	<g class="st4">
		<path class="st2" d="M64,34.7L28,137.3h28l6.1-17.7h30.5l6,17.7h27.9L90.5,34.7H64z M68.4,96.8l8.7-28.4l9.6,28.4H68.4z"/>
	</g>
</g>
</svg>
